<svg width="1440" height="1024" viewBox="0 0 1440 1024" fill="none" xmlns="http://www.w3.org/2000/svg">
<rect width="1440" height="1024" fill="#E5E5E5"/>
<rect width="1440" height="1024" fill="black"/>
<g filter="url(#filter0_d_0_1)">
<path d="M352.5 530.75C352.5 446.375 290 390.125 290 390.125C290 390.125 227.5 446.375 227.5 530.75C227.5 555.614 234.085 579.46 245.806 597.041C257.527 614.623 273.424 624.5 290 624.5C306.576 624.5 322.473 614.623 334.194 597.041C345.915 579.46 352.5 555.614 352.5 530.75Z" stroke="#FF7A00" stroke-width="20" stroke-linecap="round" stroke-linejoin="round"/>
<path d="M258.75 577.625C258.75 590.057 262.042 601.98 267.903 610.771C273.763 619.561 281.712 624.5 290 624.5C298.288 624.5 306.237 619.561 312.097 610.771C317.958 601.98 321.25 590.057 321.25 577.625C321.25 530.75 290 502.625 290 502.625C290 502.625 258.75 530.75 258.75 577.625Z" stroke="#FF7A00" stroke-width="20" stroke-linecap="round" stroke-linejoin="round"/>
</g>
<path d="M473.621 594.192C474.109 594.843 474.354 595.535 474.354 596.268C474.354 597.163 474.028 597.895 473.377 598.465C472.807 599.116 472.075 599.441 471.18 599.441C470.285 599.441 469.511 599.116 468.86 598.465C468.209 597.895 467.884 597.163 467.884 596.268C467.884 595.535 468.128 594.843 468.616 594.192V425.003C468.128 424.271 467.884 423.538 467.884 422.806C467.884 421.91 468.209 421.137 468.86 420.486C469.511 419.835 470.285 419.51 471.18 419.51C472.075 419.51 472.807 419.835 473.377 420.486C474.028 421.137 474.354 421.91 474.354 422.806C474.354 423.538 474.109 424.271 473.621 425.003V594.192ZM492.42 443.558C492.42 444.453 492.094 445.226 491.443 445.877C490.874 446.528 490.141 446.854 489.246 446.854C488.351 446.854 487.578 446.528 486.927 445.877C486.276 445.226 485.95 444.453 485.95 443.558C485.95 441.93 486.723 440.831 488.27 440.262L494.983 428.299C494.495 427.566 494.251 426.549 494.251 425.247C494.251 423.619 494.699 422.277 495.594 421.219C496.57 420.079 497.954 419.51 499.744 419.51C501.616 419.51 503.04 420.079 504.017 421.219C504.993 422.277 505.481 423.619 505.481 425.247C505.481 426.793 504.993 428.095 504.017 429.153C503.04 430.211 501.616 430.74 499.744 430.74H499.256L492.42 443.069V443.558ZM574.573 568.558C574.573 572.138 574.126 575.638 573.23 579.056C572.417 582.392 570.993 585.403 568.958 588.089C567.005 590.774 564.319 592.931 560.901 594.559C557.565 596.186 553.374 597 548.328 597H522.571V421.951H548.328C553.374 421.951 557.565 422.765 560.901 424.393C564.319 426.02 567.005 428.177 568.958 430.862C570.993 433.548 572.417 436.6 573.23 440.018C574.126 443.436 574.573 446.935 574.573 450.516V568.558ZM548.328 591.995C552.479 591.995 555.896 591.303 558.582 589.92C561.349 588.536 563.546 586.746 565.174 584.549C566.801 582.352 567.941 579.869 568.592 577.103C569.243 574.254 569.568 571.406 569.568 568.558V450.516C569.568 447.667 569.243 444.86 568.592 442.093C567.941 439.244 566.801 436.722 565.174 434.524C563.546 432.246 561.349 430.415 558.582 429.031C555.896 427.648 552.479 426.956 548.328 426.956H527.576V591.995H548.328ZM685.535 571.731C685.535 575.312 685.088 578.771 684.192 582.107C683.297 585.444 681.832 588.414 679.798 591.019C677.763 593.541 675.078 595.576 671.741 597.122C668.405 598.668 664.254 599.441 659.29 599.441C654.651 599.441 650.745 598.75 647.571 597.366C644.397 595.983 641.753 594.152 639.637 591.873C637.602 589.513 636.097 586.787 635.12 583.694C634.144 580.602 633.533 577.387 633.289 574.051C633.045 573.725 632.841 573.359 632.679 572.952C632.597 572.545 632.557 572.138 632.557 571.731C632.557 570.836 632.882 570.104 633.533 569.534C634.184 568.883 634.957 568.558 635.853 568.558C636.748 568.558 637.48 568.883 638.05 569.534C638.701 570.104 639.026 570.836 639.026 571.731C639.026 572.138 638.945 572.545 638.782 572.952C638.701 573.359 638.538 573.725 638.294 574.051C638.375 576.818 638.823 579.463 639.637 581.985C640.451 584.427 641.671 586.583 643.299 588.455C645.008 590.327 647.164 591.832 649.769 592.972C652.373 594.03 655.547 594.559 659.29 594.559C663.278 594.559 666.614 593.948 669.3 592.728C672.067 591.425 674.264 589.716 675.892 587.601C677.519 585.403 678.699 582.962 679.432 580.276C680.164 577.509 680.53 574.661 680.53 571.731V540.481C680.53 536.25 679.676 532.221 677.967 528.396C676.339 524.49 673.979 521.113 670.887 518.265L641.59 492.264C639.555 490.473 637.928 488.642 636.707 486.771C635.486 484.817 634.55 482.905 633.899 481.033C633.248 479.161 632.801 477.29 632.557 475.418C632.394 473.465 632.312 471.512 632.312 469.559V447.952C632.312 444.453 632.76 440.994 633.655 437.576C634.55 434.158 636.015 431.106 638.05 428.421C640.084 425.735 642.77 423.579 646.106 421.951C649.443 420.324 653.593 419.51 658.558 419.51C663.196 419.51 667.103 420.242 670.276 421.707C673.532 423.172 676.176 425.125 678.211 427.566C680.245 430.008 681.751 432.815 682.728 435.989C683.785 439.082 684.396 442.337 684.559 445.755C684.803 445.999 684.965 446.325 685.047 446.731C685.21 447.138 685.291 447.545 685.291 447.952C685.291 448.847 684.965 449.62 684.314 450.271C683.745 450.923 683.012 451.248 682.117 451.248C681.222 451.248 680.449 450.923 679.798 450.271C679.147 449.62 678.821 448.847 678.821 447.952C678.821 447.138 679.065 446.487 679.554 445.999C679.391 443.313 678.903 440.709 678.089 438.187C677.356 435.582 676.136 433.263 674.427 431.229C672.799 429.194 670.683 427.566 668.079 426.346C665.475 425.125 662.301 424.515 658.558 424.515C654.57 424.515 651.193 425.206 648.426 426.59C645.74 427.973 643.584 429.764 641.956 431.961C640.328 434.158 639.148 436.681 638.416 439.529C637.684 442.296 637.317 445.104 637.317 447.952V469.559C637.48 473.709 638.09 477.412 639.148 480.667C640.288 483.841 642.282 486.689 645.13 489.212L674.549 515.213C678.943 519.282 681.873 523.473 683.338 527.786C684.803 532.099 685.535 536.331 685.535 540.481V571.731ZM769.764 594.192C770.252 594.843 770.496 595.535 770.496 596.268C770.496 597.163 770.171 597.895 769.52 598.465C768.95 599.116 768.217 599.441 767.322 599.441C766.427 599.441 765.654 599.116 765.003 598.465C764.352 597.895 764.026 597.163 764.026 596.268C764.026 595.535 764.271 594.843 764.759 594.192V432.205L738.27 477.005H733.021L706.775 432.449V594.192C707.264 594.843 707.508 595.535 707.508 596.268C707.508 597.163 707.182 597.895 706.531 598.465C705.962 599.116 705.229 599.441 704.334 599.441C703.439 599.441 702.666 599.116 702.015 598.465C701.364 597.895 701.038 597.163 701.038 596.268C701.038 595.535 701.282 594.843 701.771 594.192V425.003C701.282 424.271 701.038 423.538 701.038 422.806C701.038 421.91 701.364 421.137 702.015 420.486C702.666 419.835 703.439 419.51 704.334 419.51C705.229 419.51 705.962 419.835 706.531 420.486C707.182 421.137 707.508 421.91 707.508 422.806C707.508 423.294 707.426 423.619 707.264 423.782L735.828 472L764.026 423.782V422.806C764.026 421.91 764.352 421.137 765.003 420.486C765.654 419.835 766.427 419.51 767.322 419.51C768.217 419.51 768.95 419.835 769.52 420.486C770.171 421.137 770.496 421.91 770.496 422.806C770.496 423.538 770.252 424.271 769.764 425.003V594.192ZM795.643 571.731C795.643 574.661 795.968 577.509 796.619 580.276C797.352 582.962 798.532 585.403 800.159 587.601C801.787 589.716 803.943 591.425 806.629 592.728C809.314 593.948 812.651 594.559 816.639 594.559C820.626 594.559 823.963 593.948 826.648 592.728C829.334 591.425 831.491 589.716 833.118 587.601C834.746 585.403 835.885 582.962 836.536 580.276C837.269 577.509 837.635 574.661 837.635 571.731V447.952C837.635 445.104 837.269 442.296 836.536 439.529C835.885 436.681 834.746 434.158 833.118 431.961C831.491 429.764 829.334 427.973 826.648 426.59C823.963 425.206 820.626 424.515 816.639 424.515C812.651 424.515 809.314 425.206 806.629 426.59C803.943 427.973 801.787 429.764 800.159 431.961C798.532 434.158 797.352 436.681 796.619 439.529C795.968 442.296 795.643 445.104 795.643 447.952V571.731ZM842.64 571.731C842.64 575.312 842.192 578.771 841.297 582.107C840.402 585.444 838.937 588.414 836.902 591.019C834.868 593.541 832.182 595.576 828.846 597.122C825.509 598.668 821.44 599.441 816.639 599.441C811.674 599.441 807.524 598.668 804.188 597.122C800.851 595.576 798.165 593.541 796.131 591.019C794.178 588.414 792.754 585.444 791.858 582.107C791.045 578.771 790.638 575.312 790.638 571.731V447.952C790.638 444.453 791.045 440.994 791.858 437.576C792.754 434.158 794.178 431.106 796.131 428.421C798.165 425.735 800.851 423.579 804.188 421.951C807.524 420.324 811.674 419.51 816.639 419.51C821.44 419.51 825.509 420.324 828.846 421.951C832.182 423.579 834.868 425.735 836.902 428.421C838.937 431.106 840.402 434.158 841.297 437.576C842.192 440.994 842.64 444.453 842.64 447.952V571.731ZM915.394 594.192C915.882 594.843 916.126 595.535 916.126 596.268C916.126 597.163 915.8 597.895 915.149 598.465C914.58 599.116 913.847 599.441 912.952 599.441C912.057 599.441 911.284 599.116 910.633 598.465C909.982 597.895 909.656 597.163 909.656 596.268C909.656 595.535 909.9 594.843 910.389 594.192V500.198C910.389 497.35 910.022 494.542 909.29 491.775C908.639 488.927 907.5 486.404 905.872 484.207C904.244 482.01 902.088 480.219 899.402 478.836C896.717 477.452 893.38 476.761 889.393 476.761H868.396V594.192C868.885 594.843 869.129 595.535 869.129 596.268C869.129 597.163 868.803 597.895 868.152 598.465C867.583 599.116 866.85 599.441 865.955 599.441C865.06 599.441 864.287 599.116 863.636 598.465C862.985 597.895 862.659 597.163 862.659 596.268C862.659 595.535 862.903 594.843 863.392 594.192V425.003C862.903 424.271 862.659 423.538 862.659 422.806C862.659 421.91 862.985 421.137 863.636 420.486C864.287 419.835 865.06 419.51 865.955 419.51C866.85 419.51 867.583 419.835 868.152 420.486C868.803 421.137 869.129 421.91 869.129 422.806C869.129 423.538 868.885 424.271 868.396 425.003V472L908.436 423.05V422.806C908.436 421.91 908.72 421.137 909.29 420.486C909.941 419.835 910.714 419.51 911.609 419.51C912.505 419.51 913.278 419.835 913.929 420.486C914.58 421.137 914.905 421.91 914.905 422.806C914.905 423.538 914.62 424.23 914.051 424.881C913.562 425.451 912.911 425.817 912.098 425.979L874.622 472H889.393C894.194 472 898.263 472.814 901.6 474.441C904.936 476.069 907.622 478.226 909.656 480.911C911.691 483.515 913.156 486.526 914.051 489.944C914.946 493.362 915.394 496.862 915.394 500.442V594.192ZM976.062 591.995C976.795 591.507 977.527 591.263 978.26 591.263C979.155 591.263 979.928 591.588 980.579 592.239C981.23 592.89 981.556 593.663 981.556 594.559C981.556 595.454 981.23 596.227 980.579 596.878C979.928 597.448 979.155 597.732 978.26 597.732C977.527 597.732 976.795 597.488 976.062 597H929.554V450.271C929.554 446.691 929.961 443.232 930.774 439.896C931.588 436.478 933.012 433.466 935.047 430.862C937.081 428.177 939.767 426.02 943.104 424.393C946.521 422.765 950.753 421.951 955.799 421.951H976.062C976.795 421.463 977.527 421.219 978.26 421.219C979.155 421.219 979.928 421.544 980.579 422.195C981.23 422.846 981.556 423.619 981.556 424.515C981.556 425.41 981.23 426.183 980.579 426.834C979.928 427.485 979.155 427.811 978.26 427.811C977.609 427.811 976.876 427.526 976.062 426.956H955.799C951.648 426.956 948.19 427.648 945.423 429.031C942.737 430.333 940.581 432.083 938.953 434.28C937.326 436.478 936.186 439 935.535 441.849C934.884 444.616 934.559 447.423 934.559 450.271V472H968.86C969.593 471.512 970.325 471.268 971.058 471.268C971.953 471.268 972.726 471.593 973.377 472.244C974.028 472.814 974.354 473.546 974.354 474.441C974.354 475.337 974.028 476.11 973.377 476.761C972.726 477.412 971.953 477.737 971.058 477.737C970.325 477.737 969.593 477.493 968.86 477.005H934.559V591.995H976.062ZM1059.19 594.192C1059.68 594.843 1059.92 595.535 1059.92 596.268C1059.92 597.163 1059.6 597.895 1058.95 598.465C1058.38 599.116 1057.65 599.441 1056.75 599.441C1055.86 599.441 1055.08 599.116 1054.43 598.465C1053.78 597.895 1053.46 597.163 1053.46 596.268C1053.46 595.535 1053.7 594.843 1054.19 594.192V426.956H1035.14C1034.57 427.526 1033.92 427.811 1033.19 427.811C1032.3 427.811 1031.52 427.485 1030.87 426.834C1030.22 426.183 1029.9 425.41 1029.9 424.515C1029.9 423.619 1030.22 422.846 1030.87 422.195C1031.52 421.544 1032.3 421.219 1033.19 421.219C1034.01 421.219 1034.66 421.463 1035.14 421.951H1077.99C1078.72 421.463 1079.46 421.219 1080.19 421.219C1081.08 421.219 1081.86 421.544 1082.51 422.195C1083.16 422.846 1083.48 423.619 1083.48 424.515C1083.48 425.41 1083.16 426.183 1082.51 426.834C1081.86 427.485 1081.08 427.811 1080.19 427.811C1079.54 427.811 1078.81 427.526 1077.99 426.956H1059.19V594.192ZM1148.79 594.192C1149.28 594.843 1149.52 595.535 1149.52 596.268C1149.52 597.163 1149.2 597.895 1148.55 598.465C1147.98 599.116 1147.25 599.441 1146.35 599.441C1145.46 599.441 1144.68 599.116 1144.03 598.465C1143.38 597.895 1143.05 597.163 1143.05 596.268C1143.05 595.535 1143.3 594.843 1143.79 594.192V477.005H1101.79V594.192C1102.28 594.843 1102.53 595.535 1102.53 596.268C1102.53 597.163 1102.2 597.895 1101.55 598.465C1100.98 599.116 1100.25 599.441 1099.35 599.441C1098.46 599.441 1097.69 599.116 1097.03 598.465C1096.38 597.895 1096.06 597.163 1096.06 596.268C1096.06 595.535 1096.3 594.843 1096.79 594.192V425.003C1096.3 424.271 1096.06 423.538 1096.06 422.806C1096.06 421.91 1096.38 421.137 1097.03 420.486C1097.69 419.835 1098.46 419.51 1099.35 419.51C1100.25 419.51 1100.98 419.835 1101.55 420.486C1102.2 421.137 1102.53 421.91 1102.53 422.806C1102.53 423.538 1102.28 424.271 1101.79 425.003V472H1143.79V425.003C1143.3 424.271 1143.05 423.538 1143.05 422.806C1143.05 421.91 1143.38 421.137 1144.03 420.486C1144.68 419.835 1145.46 419.51 1146.35 419.51C1147.25 419.51 1147.98 419.835 1148.55 420.486C1149.2 421.137 1149.52 421.91 1149.52 422.806C1149.52 423.538 1149.28 424.271 1148.79 425.003V594.192ZM1222.03 594.192C1222.52 594.843 1222.77 595.535 1222.77 596.268C1222.77 597.163 1222.44 597.895 1221.79 598.465C1221.22 599.116 1220.49 599.441 1219.59 599.441C1218.7 599.441 1217.92 599.116 1217.27 598.465C1216.62 597.895 1216.3 597.163 1216.3 596.268C1216.3 595.535 1216.54 594.843 1217.03 594.192V477.005H1175.04V594.192C1175.53 594.843 1175.77 595.535 1175.77 596.268C1175.77 597.163 1175.44 597.895 1174.79 598.465C1174.14 599.116 1173.37 599.441 1172.47 599.441C1171.58 599.441 1170.81 599.116 1170.15 598.465C1169.58 597.895 1169.3 597.163 1169.3 596.268C1169.3 595.535 1169.54 594.843 1170.03 594.192V450.516C1170.03 446.935 1170.44 443.436 1171.25 440.018C1172.07 436.6 1173.49 433.548 1175.53 430.862C1177.56 428.177 1180.25 426.02 1183.58 424.393C1187 422.765 1191.23 421.951 1196.28 421.951H1222.03V594.192ZM1217.03 472V426.956H1196.28C1192.13 426.956 1188.67 427.648 1185.9 429.031C1183.22 430.415 1181.06 432.246 1179.43 434.524C1177.8 436.722 1176.66 439.244 1176.01 442.093C1175.36 444.86 1175.04 447.667 1175.04 450.516V472H1217.03ZM1264.27 594.192C1264.76 594.843 1265 595.535 1265 596.268C1265 597.163 1264.68 597.895 1264.03 598.465C1263.46 599.116 1262.72 599.441 1261.83 599.441C1260.93 599.441 1260.16 599.116 1259.51 598.465C1258.86 597.895 1258.53 597.163 1258.53 596.268C1258.53 595.535 1258.78 594.843 1259.27 594.192V426.956H1240.22C1239.65 427.526 1239 427.811 1238.27 427.811C1237.37 427.811 1236.6 427.485 1235.95 426.834C1235.3 426.183 1234.97 425.41 1234.97 424.515C1234.97 423.619 1235.3 422.846 1235.95 422.195C1236.6 421.544 1237.37 421.219 1238.27 421.219C1239.08 421.219 1239.73 421.463 1240.22 421.951H1283.07C1283.8 421.463 1284.53 421.219 1285.27 421.219C1286.16 421.219 1286.93 421.544 1287.59 422.195C1288.24 422.846 1288.56 423.619 1288.56 424.515C1288.56 425.41 1288.24 426.183 1287.59 426.834C1286.93 427.485 1286.16 427.811 1285.27 427.811C1284.62 427.811 1283.88 427.526 1283.07 426.956H1264.27V594.192Z" fill="#D7C7BE"/>
<path d="M457.874 622.024H1291V634.476H457.874V622.024Z" fill="#D7C7BE"/>
<path d="M131.624 480.949L155.061 521.544" stroke="white" stroke-width="10" stroke-linecap="round" stroke-linejoin="round"/>
<path d="M180.843 566.199L244.124 675.805" stroke="white" stroke-width="10" stroke-linecap="round" stroke-linejoin="round"/>
<path d="M160.04 464.543L196.284 508.569C201.879 518.259 203.395 529.774 200.499 540.582C197.603 551.39 190.532 560.604 180.843 566.199C171.153 571.793 159.638 573.309 148.83 570.413C138.022 567.517 128.808 560.447 123.213 550.757L103.207 497.355" stroke="white" stroke-width="10" stroke-linecap="round" stroke-linejoin="round"/>
<path d="M366.652 605.954L428.319 628.399C428.319 628.399 459.995 500.255 417.955 465L341 676.431" stroke="white" stroke-width="10" stroke-linecap="round" stroke-linejoin="round"/>
<defs>
<filter id="filter0_d_0_1" x="186" y="362" width="208" height="308" filterUnits="userSpaceOnUse" color-interpolation-filters="sRGB">
<feFlood flood-opacity="0" result="BackgroundImageFix"/>
<feColorMatrix in="SourceAlpha" type="matrix" values="0 0 0 0 0 0 0 0 0 0 0 0 0 0 0 0 0 0 127 0" result="hardAlpha"/>
<feOffset dy="4"/>
<feGaussianBlur stdDeviation="2"/>
<feComposite in2="hardAlpha" operator="out"/>
<feColorMatrix type="matrix" values="0 0 0 0 0 0 0 0 0 0 0 0 0 0 0 0 0 0 0.25 0"/>
<feBlend mode="normal" in2="BackgroundImageFix" result="effect1_dropShadow_0_1"/>
<feBlend mode="normal" in="SourceGraphic" in2="effect1_dropShadow_0_1" result="shape"/>
</filter>
</defs>
</svg>
